<svg width="64" height="40" viewBox="0 0 64 40" fill="none" xmlns="http://www.w3.org/2000/svg">
<g id="suv">
<circle id="Oval" opacity="0.201403" cx="20" cy="20" r="20" fill="white"/>
<path id="Combined Shape" fill-rule="evenodd" clip-rule="evenodd" d="M45.4751 13.6937C48.7743 13.6928 48.9455 13.6927 49.116 13.7043L49.1445 13.7063C49.1722 13.7082 49.2038 13.7105 49.2509 13.7131L48.62 12.1343C47.6355 9.67065 45.2865 8.07874 42.6356 8.07874H38.5277L40.2107 13.6945C42.5244 13.6945 44.2211 13.694 45.4701 13.6937H45.4721L45.4751 13.6937ZM27.8822 13.6945L29.0044 8.07882H23.4391C22.8753 8.07882 22.3769 8.44562 22.2087 8.98428C21.6242 10.8566 21.1971 12.2238 20.8849 13.2234L20.7377 13.6946H27.8822V13.6945ZM35.8361 8.07882L37.5191 13.6945H30.5116L31.6335 8.07882H35.8361ZM27.65 20.5828V16.275H20.0041C19.9994 16.5962 19.9997 17.3776 20.0006 19.3813L20.0007 19.7777H21.4626C22.1745 19.7777 22.7517 20.3554 22.7517 21.068C22.7517 21.7806 22.1745 22.3583 21.4626 22.3583H20.0015L20.0017 23.9927C20.0017 26.0515 21.6157 27.7394 23.6436 27.8566C23.3611 24.7743 25.0052 21.9355 27.65 20.5828ZM61.2531 21.0056C61.2182 21.7466 61.808 22.3583 62.5407 22.3583H63.986C63.8225 24.5831 62.4162 26.551 60.3864 27.4081C60.5164 23.1965 57.1307 19.7777 53.0016 19.7777C48.6855 19.7777 45.2399 23.4959 45.6441 27.8637H38.359C38.7898 23.2086 34.8561 19.3328 30.2281 19.8181V16.275H37.9624V17.7374C37.9624 18.4707 38.5735 19.0612 39.3138 19.0263C40.0072 18.9936 40.5406 18.3957 40.5406 17.7009V16.275H48.8413L61.8975 16.9912C62.4393 17.0209 62.9047 17.3876 63.0614 17.9076L63.2568 18.556L63.2579 18.5598C63.4208 19.1 63.5382 19.4894 63.6242 19.7777H62.5771C61.883 19.7777 61.2857 20.3116 61.2531 21.0056ZM52.2996 31.9409C54.4624 32.2587 56.5451 31.0809 57.4116 29.1015C58.8005 25.9247 56.4593 22.3583 53.0017 22.3583C50.0864 22.3583 47.8208 24.9486 48.2391 27.8637C48.5392 29.9534 50.1923 31.6316 52.2996 31.9409ZM26.239 27.8637C25.8196 24.9402 28.0959 22.3583 31.0016 22.3583C33.919 22.3583 36.1822 24.9509 35.7642 27.8636C35.5232 29.5414 34.402 30.9926 32.8019 31.6417C30.9655 32.3866 28.8648 31.9242 27.5019 30.4769C26.4851 29.3973 26.3041 28.2505 26.2556 27.9432C26.2474 27.8916 26.243 27.8637 26.239 27.8637Z" fill="white" fill-opacity="0.9"/>
</g>
</svg>
