<svg width="64" height="40" viewBox="0 0 64 40" fill="none" xmlns="http://www.w3.org/2000/svg">
<g id="luxury">
<circle id="Oval" opacity="0.201403" cx="20" cy="20" r="20" fill="white"/>
<path id="Combined Shape" fill-rule="evenodd" clip-rule="evenodd" d="M63.291 19.9224C59.027 17.3112 53.7712 16.0541 49.3273 16.1692L45.612 12.3842C45.1097 11.8723 44.295 11.8723 43.7926 12.3842C43.2901 12.8961 43.2901 13.7259 43.7926 14.2378L46.7769 17.278C45.0004 18.2733 43.2098 18.6582 41.5298 18.6816C40.8104 20.091 40.2758 21.1368 39.8664 21.938C39.0195 23.5949 38.7079 24.2047 38.4025 24.8177C38.2246 25.1747 38.0489 25.5328 37.7708 26.0995C37.6238 26.3992 37.4482 26.7572 37.2284 27.2041H46.8972C46.4322 23.4778 49.2901 20.2139 52.9363 20.2139C56.5306 20.2139 59.3859 23.3978 58.9887 27.0967C61.789 26.5603 63.9148 24.052 63.9148 21.0457C63.9147 20.5857 63.678 20.1593 63.291 19.9224ZM36.258 23.3283C35.1877 21.4373 33.1982 20.2139 30.9791 20.2139C27.3843 20.2139 24.5287 23.3985 24.9268 27.0987C23.095 26.7517 21.5126 25.5623 20.6485 23.8226C20.4281 23.3787 20.4735 22.8455 20.7657 22.4469L21.7205 21.144L20.3962 19.8487C19.645 19.1142 20.0197 17.8246 21.0351 17.6179L23.8903 17.0366L23.8904 17.0366L23.8907 17.0366C26.5277 16.4996 27.8678 16.2268 27.9368 16.2148C28.2506 16.0693 29.0064 15.6239 29.0064 14.709C29.0064 13.9749 29.5988 13.3817 30.3231 13.3987C31.0353 13.4154 31.591 14.0612 31.5788 14.7869C31.5685 15.3975 31.4373 15.9327 31.2311 16.3981C32.8363 16.6122 34.4076 16.9949 35.9301 17.5436L35.2318 15.0712C35.0355 14.3756 35.4299 13.6494 36.1127 13.4493C36.7958 13.2492 37.5084 13.6511 37.7048 14.3468L38.4538 16.9988C38.6906 17.8372 38.602 18.7356 38.2069 19.5096C38.2138 19.4961 37.275 21.3345 36.258 23.3283ZM30.9791 30.0003C32.9212 30.0003 34.4956 28.3963 34.4956 26.4177C34.4956 24.4392 32.9212 22.8352 30.9791 22.8352C29.0369 22.8352 27.4625 24.4392 27.4625 26.4177C27.4625 28.3963 29.0369 30.0003 30.9791 30.0003ZM52.9362 30.0003C54.8783 30.0003 56.4528 28.3963 56.4528 26.4177C56.4528 24.4392 54.8783 22.8352 52.9362 22.8352C50.994 22.8352 49.4196 24.4392 49.4196 26.4177C49.4196 28.3963 50.994 30.0003 52.9362 30.0003Z" fill="white" fill-opacity="0.9"/>
</g>
</svg>
